<mxfile host="app.diagrams.net" modified="2023-04-20T10:15:02.523Z" agent="Mozilla/5.0 (Windows NT 10.0; Win64; x64; rv:109.0) Gecko/20100101 Firefox/112.0" version="21.1.5" etag="p4c4RwBc7V1J8FnU69xt" type="github">
  <diagram name="Страница 1" id="_aZPeHhYDO7rFtgouB3I">
    <mxGraphModel>
      <root>
        <mxCell id="0" />
        <mxCell id="1" parent="0" />
      </root>
    </mxGraphModel>
  </diagram>
</mxfile>
